<!-- icon666.com - MILLIONS vector ICONS FREE --><svg id="Capa_1" enable-background="new 0 0 511.999 511.999" viewBox="0 0 511.999 511.999" xmlns="http://www.w3.org/2000/svg"><g><path d="m248.499 390.414v5.396c0 4.143 3.357 7.5 7.5 7.5s7.5-3.357 7.5-7.5v-5.396c0-4.143-3.357-7.5-7.5-7.5s-7.5 3.357-7.5 7.5z"></path><path d="m247.102 447.93c0-4.143-3.357-7.5-7.5-7.5h-53.241c-4.143 0-7.5 3.357-7.5 7.5s3.357 7.5 7.5 7.5h53.241c4.142 0 7.5-3.357 7.5-7.5z"></path><path d="m325.639 455.43c4.143 0 7.5-3.357 7.5-7.5s-3.357-7.5-7.5-7.5h-61.295c-4.143 0-7.5 3.357-7.5 7.5s3.357 7.5 7.5 7.5z"></path><path d="m186.361 467.847c-4.143 0-7.5 3.357-7.5 7.5s3.357 7.5 7.5 7.5h23.833c4.143 0 7.5-3.357 7.5-7.5s-3.357-7.5-7.5-7.5z"></path><path d="m234.936 482.847h90.703c4.143 0 7.5-3.357 7.5-7.5s-3.357-7.5-7.5-7.5h-90.703c-4.143 0-7.5 3.357-7.5 7.5s3.357 7.5 7.5 7.5z"></path><path d="m398.477 59.612c-37.1-37.631-86.606-58.794-139.4-59.59-34.14-.516-68.064 7.925-98.155 24.406-29.104 15.941-54.126 39.059-72.359 66.854-2.271 3.463-1.306 8.112 2.158 10.385 3.46 2.271 8.111 1.305 10.385-2.158 35.331-53.861 94.273-85.439 157.744-84.489 100.477 1.516 182.22 84.528 182.22 185.049 0 87.799-62.373 164.093-148.309 181.408-5.52 1.112-10.383 4.478-13.344 9.234l-18.802 30.216c-1.44 2.314-3.708 2.564-4.615 2.564-.908 0-3.177-.25-4.617-2.564l-18.803-30.217c-2.96-4.755-7.816-8.119-13.326-9.229-86.147-17.351-148.527-93.83-148.324-181.849.061-26.148 5.615-51.505 16.51-75.365 1.721-3.768.061-8.217-3.707-9.938-3.769-1.72-8.218-.061-9.938 3.707-11.789 25.818-17.8 53.26-17.865 81.561-.22 95.152 67.223 177.829 160.362 196.589 1.473.297 2.769 1.19 3.553 2.45l7.867 12.644h-40.55c-27.769 0-50.36 22.591-50.36 50.359s22.592 50.36 50.36 50.36h62.682c4.143 0 7.5-3.357 7.5-7.5s-3.357-7.5-7.5-7.5h-62.682c-19.498 0-35.36-15.862-35.36-35.36 0-19.497 15.862-35.359 35.36-35.359h49.883l1.601 2.573c3.757 6.036 10.244 9.64 17.354 9.64s13.596-3.604 17.352-9.64l1.601-2.573h49.884c19.498 0 35.36 15.862 35.36 35.359 0 19.498-15.862 35.36-35.36 35.36h-45.993c-4.143 0-7.5 3.357-7.5 7.5s3.357 7.5 7.5 7.5h45.993c27.769 0 50.36-22.592 50.36-50.36s-22.592-50.359-50.36-50.359h-40.55l7.866-12.641c.785-1.262 2.087-2.157 3.571-2.456 44.627-8.992 85.28-33.366 114.472-68.631 29.582-35.737 45.874-81.012 45.874-127.482 0-52.906-20.454-102.788-57.593-140.458z"></path><path d="m384.601 299.943c3.386 2.392 8.063 1.585 10.453-1.797 20.346-28.795 31.1-62.71 31.1-98.077 0-93.823-76.331-170.154-170.154-170.154s-170.154 76.331-170.154 170.154 76.33 170.154 170.153 170.154c44.968 0 87.377-17.386 119.415-48.956 2.951-2.907 2.985-7.655.078-10.605-2.909-2.953-7.659-2.985-10.605-.078-29.215 28.786-67.885 44.64-108.888 44.64-85.552 0-155.153-69.602-155.153-155.154s69.601-155.155 155.153-155.155c85.553 0 155.154 69.602 155.154 155.154 0 32.25-9.804 63.172-28.35 89.421-2.39 3.383-1.585 8.064 1.798 10.453z"></path><path d="m291.057 236.191-27.148 9.05c-10.165 3.39-18.73-.458-19.163-.538-9.671-3.376-16.689-11.754-18.318-21.867-1.885-11.697 3.859-23.332 14.292-28.95l29.62-15.949c3.647-1.964 5.012-6.512 3.048-10.159-1.963-3.646-6.513-5.014-10.159-3.048l-21.497 11.575-6.192-6.585c-3.464-3.684-3.48-9.47-.038-13.173 2.882-3.1 7.545-3.956 11.339-2.078l6.511 3.221c3.71 1.833 8.211.315 10.048-3.397 1.836-3.713.315-8.211-3.397-10.048l-6.512-3.221c-9.694-4.797-21.611-2.61-28.975 5.311-8.797 9.462-8.754 24.248.097 33.661l3.768 4.007c-12.696 9.426-19.329 25.284-16.761 41.219 3.534 21.953 22.871 36.437 43.487 36.437 4.585 0 9.173-.729 13.547-2.187l27.148-9.05c3.93-1.31 6.053-5.558 4.743-9.487-1.311-3.93-5.558-6.051-9.488-4.744z"></path><path d="m353.778 177.053c4.332-10.564 3.542-22.295-2.167-32.184s-15.473-16.438-26.788-17.97l-15.876-2.148c-5.66-.766-10.701-3.676-14.193-8.193l-9.798-12.675c-6.983-9.034-17.538-14.216-28.957-14.215-11.418 0-21.972 5.182-28.954 14.215l-9.799 12.675c-3.492 4.518-8.533 7.428-14.192 8.193l-15.876 2.148c-11.315 1.531-21.079 8.081-26.788 17.969-5.709 9.889-6.499 21.619-2.168 32.185l6.078 14.823c2.167 5.283 2.167 11.104 0 16.387l-6.078 14.824c-4.331 10.564-3.541 22.295 2.168 32.184 5.709 9.888 15.473 16.437 26.788 17.969l15.876 2.148c5.659.766 10.7 3.676 14.192 8.193l9.799 12.675c6.982 9.033 17.536 14.215 28.954 14.215h.001c11.418 0 21.973-5.182 28.956-14.215l9.798-12.675c3.492-4.518 8.533-7.428 14.193-8.193l15.876-2.148c11.315-1.531 21.079-8.081 26.788-17.97s6.499-21.619 2.167-32.183l-6.077-14.824c-2.167-5.283-2.167-11.104 0-16.388zm-19.957 36.9 6.077 14.824c2.557 6.234 2.091 13.157-1.278 18.992-3.369 5.836-9.132 9.701-15.81 10.604l-15.876 2.148c-9.591 1.299-18.131 6.229-24.049 13.885l-9.798 12.675c-4.122 5.331-10.351 8.389-17.089 8.389s-12.967-3.058-17.088-8.389l-9.799-12.675c-5.918-7.655-14.458-12.587-24.048-13.885l-15.876-2.148c-6.678-.903-12.44-4.769-15.81-10.604-3.369-5.835-3.836-12.758-1.279-18.992l6.078-14.823c3.671-8.954 3.671-18.815 0-27.77l-6.078-14.822c-2.557-6.235-2.09-13.158 1.279-18.993 3.369-5.836 9.132-9.701 15.81-10.604l15.876-2.148c9.59-1.298 18.13-6.229 24.048-13.885l9.799-12.675c4.121-5.331 10.35-8.389 17.088-8.389s12.967 3.058 17.089 8.389l9.798 12.675c5.918 7.655 14.458 12.586 24.049 13.885l15.876 2.148c6.678.903 12.44 4.769 15.81 10.604 3.369 5.835 3.835 12.758 1.278 18.993l-6.077 14.822c-3.67 8.955-3.67 18.816 0 27.769z"></path></g></svg>