<?xml version="1.0" encoding="iso-8859-1"?>
<!-- Uploaded to: SVG Repo, www.svgrepo.com, Generator: SVG Repo Mixer Tools -->
<svg height="800px" width="800px" version="1.1" id="Capa_1" xmlns="http://www.w3.org/2000/svg" xmlns:xlink="http://www.w3.org/1999/xlink" 
	 viewBox="0 0 358.21 358.21" xml:space="preserve">
<g>
	<g>
		<path style="fill:#010002;" d="M350.081,60.448H8.129C3.642,60.448,0,64.09,0,68.577v44.48c0,4.487,3.642,8.129,8.129,8.129
			h13.485v168.448c0,4.495,3.642,8.129,8.129,8.129h298.725c4.495,0,8.129-3.633,8.129-8.129V121.185h13.485
			c4.495,0,8.129-3.642,8.129-8.129v-44.48C358.21,64.09,354.577,60.448,350.081,60.448z M320.339,281.505H37.871v-160.32h282.468
			V281.505z M341.953,104.928h-13.485H29.742H16.257V76.705h325.696C341.953,76.705,341.953,104.928,341.953,104.928z"/>
		<polygon style="fill:#010002;" points="133.544,255.965 178.024,211.477 222.503,255.965 233.997,244.471 189.518,199.983 
			233.997,155.512 222.503,144.018 178.024,188.489 133.544,144.018 122.051,155.512 166.53,199.983 122.051,244.471 		"/>
	</g>
</g>
</svg>