<?xml version="1.0" encoding="iso-8859-1"?>
<!-- Uploaded to: SVG Repo, www.svgrepo.com, Generator: SVG Repo Mixer Tools -->
<svg height="800px" width="800px" version="1.1" id="Layer_1" xmlns="http://www.w3.org/2000/svg" xmlns:xlink="http://www.w3.org/1999/xlink" 
	 viewBox="0 0 512 512" xml:space="preserve">
<g>
	<circle style="fill:#FFFFFF;" cx="401.067" cy="418.133" r="34.133"/>
	<circle style="fill:#FFFFFF;" cx="110.933" cy="418.133" r="34.133"/>
</g>
<path d="M401.067,366.933c-28.245,0-51.2,22.955-51.2,51.2c0,28.245,22.955,51.2,51.2,51.2c28.245,0,51.2-22.955,51.2-51.2
	C452.267,389.888,429.312,366.933,401.067,366.933z M401.067,452.267c-18.859,0-34.133-15.275-34.133-34.133
	c0-18.859,15.275-34.133,34.133-34.133c18.859,0,34.133,15.275,34.133,34.133C435.2,436.992,419.925,452.267,401.067,452.267z"/>
<path d="M110.933,366.933c-28.245,0-51.2,22.955-51.2,51.2c0,28.245,22.955,51.2,51.2,51.2s51.2-22.955,51.2-51.2
	C162.133,389.888,139.179,366.933,110.933,366.933z M110.933,452.267c-18.859,0-34.133-15.275-34.133-34.133
	C76.8,399.275,92.075,384,110.933,384s34.133,15.275,34.133,34.133C145.067,436.992,129.792,452.267,110.933,452.267z"/>
<path d="M510.891,294.485l-42.667-76.8c-1.451-2.645-4.352-4.352-7.424-4.352H358.4c-4.693,0-8.533,3.84-8.533,8.533v128H332.8
	c0-64.427,0-179.2,0-179.2c0-18.859-15.275-34.133-34.133-34.133H187.733c0-51.797-42.069-93.867-93.867-93.867S0,84.736,0,136.533
	c0,13.909,3.072,27.051,8.533,38.912v165.888c-4.693,0-8.533,3.84-8.533,8.533v42.667c0,2.304,0.939,4.437,2.475,6.059
	c2.56,2.475,2.56,2.475,36.096,2.475c3.584,0,6.827-2.304,8.021-5.717c9.557-27.221,35.499-45.483,64.341-45.483
	c28.928,0,54.784,18.261,64.341,45.483c1.28,3.413,4.437,5.717,8.107,5.717h140.885c4.693,0,8.533-3.84,8.533-8.533v-25.6h19.968
	c1.963,0,3.84-0.683,5.376-1.877c12.288-9.984,27.136-15.189,42.923-15.189c28.928,0,54.784,18.261,64.341,45.483
	c1.28,3.413,4.437,5.717,8.107,5.717h29.952c4.693,0,8.533-3.84,8.533-8.533v-93.867C512,297.216,511.659,295.765,510.891,294.485z
	 M93.867,59.733c42.325,0,76.8,34.475,76.8,76.8s-34.475,76.8-76.8,76.8s-76.8-34.475-76.8-76.8S51.541,59.733,93.867,59.733z
	 M189.184,384c-13.483-30.891-44.203-51.2-78.251-51.2S46.165,353.109,32.683,384H17.067v-25.6c4.693,0,8.533-3.84,8.533-8.533
	v-25.6h8.533c4.693,0,8.533-3.84,8.533-8.533s-3.84-8.533-8.533-8.533H25.6V200.789C42.752,218.965,66.987,230.4,93.867,230.4
	c45.909,0,84.139-33.195,92.245-76.8h112.555c9.387,0,17.067,7.68,17.067,17.067V358.4c0,11.179,0,19.541,0.171,25.6H189.184z
	 M401.067,230.4h54.699l33.195,59.733h-87.893V230.4z M494.933,324.267H486.4c-4.693,0-8.533,3.84-8.533,8.533
	s3.84,8.533,8.533,8.533h8.533V384h-15.616c-13.483-30.891-44.203-51.2-78.251-51.2c-11.776,0-23.467,2.475-34.133,7.168V230.4H384
	v68.267c0,4.693,3.84,8.533,8.533,8.533h102.4V324.267z"/>
<g>
	<path style="fill:#FFFFFF;" d="M93.867,59.733c-42.325,0-76.8,34.475-76.8,76.8s34.475,76.8,76.8,76.8s76.8-34.475,76.8-76.8
		S136.192,59.733,93.867,59.733z M134.059,116.992l-59.733,59.733c-1.707,1.621-3.84,2.475-6.059,2.475s-4.352-0.853-6.059-2.475
		l-17.067-17.067c-3.328-3.328-3.328-8.789,0-12.117s8.789-3.328,12.117,0l11.008,11.093l53.675-53.76
		c3.328-3.328,8.789-3.328,12.117,0C137.387,108.203,137.387,113.664,134.059,116.992z"/>
	<polygon style="fill:#FFFFFF;" points="488.96,290.133 401.067,290.133 401.067,230.4 455.765,230.4 	"/>
</g>
<path style="fill:#717272;" d="M477.867,332.8c0,4.693,3.84,8.533,8.533,8.533h8.533V384h-15.616
	c-13.483-30.891-44.203-51.2-78.251-51.2c-11.776,0-23.467,2.475-34.133,7.168V230.4H384v68.267c0,4.693,3.84,8.533,8.533,8.533
	h102.4v17.067H486.4C481.707,324.267,477.867,328.107,477.867,332.8z"/>
<path style="fill:#00796B;" d="M315.904,384h-126.72c-13.483-30.891-44.203-51.2-78.251-51.2S46.165,353.109,32.683,384H17.067
	v-25.6c4.693,0,8.533-3.84,8.533-8.533v-25.6h8.533c4.693,0,8.533-3.84,8.533-8.533s-3.84-8.533-8.533-8.533H25.6V200.789
	C42.752,218.965,66.987,230.4,93.867,230.4c45.909,0,84.139-33.195,92.245-76.8h112.555c9.387,0,17.067,7.68,17.067,17.067V358.4
	C315.733,369.579,315.733,377.941,315.904,384z"/>
<path d="M134.059,116.992l-59.733,59.733c-1.707,1.621-3.84,2.475-6.059,2.475s-4.352-0.853-6.059-2.475l-17.067-17.067
	c-3.328-3.328-3.328-8.789,0-12.117s8.789-3.328,12.117,0l11.008,11.093l53.675-53.76c3.328-3.328,8.789-3.328,12.117,0
	C137.387,108.203,137.387,113.664,134.059,116.992z"/>
<g>
	<polygon style="fill:#F4F4F4;" points="455.765,230.4 439.646,230.4 463.36,273.067 401.067,273.067 401.067,290.133 
		488.96,290.133 	"/>
	<path style="fill:#F4F4F4;" d="M420.531,390.135c3.849,5.53,6.135,12.22,6.135,19.465c0,18.859-15.275,34.133-34.133,34.133
		c-7.245,0-13.935-2.287-19.465-6.135c6.17,8.849,16.384,14.669,27.998,14.669c18.859,0,34.133-15.275,34.133-34.133
		C435.2,406.52,429.38,396.305,420.531,390.135z"/>
	<path style="fill:#F4F4F4;" d="M130.398,390.135c3.849,5.53,6.135,12.22,6.135,19.465c0,18.859-15.275,34.133-34.133,34.133
		c-7.245,0-13.935-2.287-19.465-6.135c6.17,8.849,16.384,14.669,27.998,14.669c18.859,0,34.133-15.275,34.133-34.133
		C145.067,406.52,139.247,396.305,130.398,390.135z"/>
</g>
<g>
	<path style="fill:#004D40;" d="M315.733,357.888V170.667c0-9.387-7.68-17.067-17.067-17.067v187.221c0,11.52,0,19.883,0.171,26.112
		H178.961c3.968,5.257,7.526,10.88,10.223,17.067h126.72C315.733,377.771,315.733,369.408,315.733,357.888z"/>
	<path style="fill:#004D40;" d="M17.067,366.933V384h15.616c2.697-6.187,6.255-11.81,10.223-17.067H17.067z"/>
</g>
<g>
	<path style="fill:#555656;" d="M469.094,366.933c3.968,5.257,7.526,10.88,10.223,17.067h15.616v-42.667H486.4
		c-4.693,0-8.533-3.84-8.533-8.533v34.133H469.094z"/>
	<path style="fill:#555656;" d="M486.4,324.267h8.533V307.2h-17.067v25.6C477.867,328.107,481.707,324.267,486.4,324.267z"/>
</g>
<path style="fill:#F4F4F4;" d="M138.88,74.453c9.216,12.672,14.72,28.194,14.72,45.013c0,42.325-34.475,76.8-76.8,76.8
	c-16.819,0-32.341-5.504-45.013-14.72c13.978,19.217,36.574,31.787,62.08,31.787c42.325,0,76.8-34.475,76.8-76.8
	C170.667,111.027,158.097,88.431,138.88,74.453z"/>
</svg>