<?xml version="1.0" encoding="iso-8859-1"?>
<!-- Uploaded to: SVG Repo, www.svgrepo.com, Generator: SVG Repo Mixer Tools -->
<!DOCTYPE svg PUBLIC "-//W3C//DTD SVG 1.1//EN" "http://www.w3.org/Graphics/SVG/1.1/DTD/svg11.dtd">
<svg fill="#000000" version="1.1" id="Capa_1" xmlns="http://www.w3.org/2000/svg" xmlns:xlink="http://www.w3.org/1999/xlink" 
	 width="800px" height="800px" viewBox="0 0 193.686 193.686"
	 xml:space="preserve">
<g>
	<g>
		<path d="M177.344,110.933c-6.311-8.909-20.155-8.589-29.831-8.977c-10.448-0.419-21.072,0.193-31.557,1.504
			c1.536-0.87,2.965-1.706,4.222-2.412c14.42-8.092,27.179-19.135,41.938-26.59c1.612-0.813,2.779-3.307,2.054-5.048
			c-6.542-15.708-13.341-31.294-21.591-46.195c-4.905-8.862-12.426-23.081-24.17-23.214c-13.454-0.153-29.445,10.854-40.445,17.312
			c-7.469,4.385-24.735,12.522-25.319,22.886c-0.066,1.172,0.502,2.114,1.315,2.79c4.758,12.759,9.936,25.188,16.294,37.254
			c4.062,7.71,9.028,18.244,16.159,24.734c-11.724-0.714-23.477-1.119-35.211-1.279c-9.207-0.125-28.215-3.29-35.656,3.972
			c-1.098,1.07-1.211,2.393-0.769,3.519c-9.842-3.818-5.754,28.458-5.519,31.474c1.215,15.62-8.141,43.018,14.276,47.083
			c4.509,0.818,9.467-0.219,13.946-0.751c9.599-1.139,19.498-0.484,29.155-0.484c7.87,0,18.428,1.867,25.513-2.627
			c1.57-0.996,2.791-2.496,3.775-4.266c0.434,1.24,0.91,2.456,1.505,3.6c5.087,9.769,23.06,8.538,31.788,8.279
			c15.97-0.47,31.889-4.374,47.868-3.869c2.584,0.082,4.365-2.125,4.522-4.522C183.092,162.508,191.576,131.028,177.344,110.933z
			 M73.736,68.771c-4.743-8.758-9.386-17.571-14.11-26.34c0.062-0.105,0.153-0.169,0.206-0.285
			c3.377-7.393,16.064-13.13,22.624-17.147c10.292-6.302,21.319-12.265,32.952-15.622c15.86-4.577,33.126,44.827,38.771,59.066
			c-0.189,0.141-0.374,0.279-0.598,0.458c-2.702,1.531-5.282,3.3-7.875,5.008c-5.434,3.582-10.784,7.29-16.197,10.902
			c-6.833,4.558-25.951,20.24-34.841,15.733C85.143,95.714,78.541,77.641,73.736,68.771z M88.756,174.946
			c-2.877,10.178-46.501,4.644-55.862,5.753c-22.168,2.631-14.241-31.688-15.451-44.986c-0.278-3.057,1.048-17.368-0.852-22.534
			c0.684,0.332,1.483,0.465,2.326,0.278c23.077-5.084,51.07-1.151,74.983,0.688C94.838,134.784,94.447,154.811,88.756,174.946z
			 M172.913,180.771c-18.256,1.621-65.328,12.672-69.453-3.533c-1.413-5.557-1.796-11.579-1.781-17.657
			c2.054-11.327,1.98-23.092,1.455-34.703c-0.009-0.165-0.01-0.331-0.021-0.494c-0.154-3.319-0.331-6.616-0.507-9.893
			c0.225-0.011,0.447-0.014,0.684-0.058c15.661-2.887,62.068-12.265,69.671,6.657C180.053,138.733,174.706,161.759,172.913,180.771z
			"/>
		<path d="M62.58,145.518c-1.173-8.357-3.029-17.081-7.673-24.257c-1.473-2.276-5.65-2.944-6.945,0
			c-5.633,12.807-13.459,27.847-12.778,42.191c0.187,3.944,5.568,3.774,6,0c0.271-2.371,0.73-4.736,1.3-7.094
			c2.605,0.08,5.296-0.141,7.773-0.173c0.823-0.011,1.647-0.023,2.47-0.036c0.001,0,0.003,0,0.004,0
			c0.309,0.066,1.605,0.221,1.827,0.221c0.224,0,0.428-0.065,0.644-0.098c0.201,4.084,0.677,8.223,2.904,11.012
			c1.359,1.702,4.504,1.152,5.44-0.701C66.357,161.019,63.418,151.484,62.58,145.518z M50.918,149.853
			c-2.208,0.287-4.502,0.453-6.776,0.696c1.976-6.068,4.611-12.037,7.289-17.794c1.769,5.152,2.625,10.68,3.329,16.01
			c0.016,0.125,0.022,0.268,0.037,0.395C53.468,149.158,52.309,149.672,50.918,149.853z"/>
		<path d="M147.753,144.024c3.755-3.114,6.103-7.415,5.277-13.102c-1.524-10.526-15.346-10.22-22.614-7.458
			c-1.705,0.647-2.941,1.958-2.953,3.88c-0.041,6.665-0.081,13.357,0.305,20.013c0.303,5.217,0.123,12.596,4.019,16.623
			c0.577,0.596,1.255,0.808,1.918,0.789c1.589,3.928,6.442,5.957,10.684,5.06c4.576-0.967,7.987-4.602,9.714-8.812
			C157.486,152.764,153.793,147.023,147.753,144.024z M145.156,132.227c2.867,4.845-6.631,8.386-10.097,9.39
			c0.123-3.821,0.314-7.633,0.4-11.384C138.996,129.201,143.134,128.809,145.156,132.227z M147.042,157.322
			c-0.536,1.93-1.936,3.477-3.655,4.412c-1.813,0.987-4.202-1.832-5.942-2.157c-0.439-0.082-0.913-0.069-1.377,0.011
			c-0.644-3.32-0.961-6.709-1.055-10.135c0.182,0.018,0.332,0.09,0.527,0.08C140.899,149.281,149.074,150.024,147.042,157.322z"/>
		<path d="M120.627,57.25c-1.677,3.05-3.185,6.131-5.798,8.501c-0.58,0.526-0.953,0.676-1.596,0.854
			c-0.048,0.013-0.064,0.021-0.095,0.031c-0.076-0.011-0.189-0.022-0.407-0.028c0.877,0.023,0.372-0.022-0.072-0.096
			c-0.163-0.09-0.666-0.308-0.814-0.403c-0.112-0.071-0.142-0.083-0.159-0.089c0.003-0.013-0.043-0.077-0.37-0.386
			c-1.067-1.01-0.886-0.906-1.605-2.027c-1.521-2.372-2.161-4.239-2.994-6.948c-1.433-4.658-2.086-10.025-1.297-14.062
			c0.256-1.304,0.355-1.369,0.628-1.844c0.108-0.19,0.109-0.239,0.555-0.478c-0.533,0.286,0.262,0.004,0.634,0.061
			c0.828,0.127,1.472,0.207,2.303,0.001c0.411-0.102,0.599-0.176,0.676-0.224c0.073,0.048,0.263,0.117,0.694,0.208
			c1.009,0.212,1.849-0.791,1.332-1.733c-0.148-0.282-0.306-0.559-0.471-0.832c-0.073-0.126-0.121-0.191-0.163-0.245
			c-0.017-0.098-0.028-0.176-0.059-0.325c-0.205-0.984-0.748-1.786-1.583-2.347c-1.358-0.914-2.805-1.438-4.438-1.545
			c-3.049-0.2-5.609,1.997-6.951,4.538c-3.212,6.082-1.979,14.282-0.353,20.634c1.676,6.548,5.116,13.782,11.759,16.394
			c8.372,3.292,15.38-6.926,18.179-13.21C130.396,56.632,123.393,52.219,120.627,57.25z"/>
	</g>
</g>
</svg>