<?xml version="1.0" encoding="iso-8859-1"?>
<!-- Uploaded to: SVG Repo, www.svgrepo.com, Generator: SVG Repo Mixer Tools -->
<svg fill="#000000" height="800px" width="800px" version="1.1" id="Layer_1" xmlns="http://www.w3.org/2000/svg" xmlns:xlink="http://www.w3.org/1999/xlink" 
	 viewBox="0 0 512.213 512.213" xml:space="preserve">
<g transform="translate(0 1)">
	<g>
		<g>
			<path d="M489.067,187.8L292.8,13.72c-20.48-19.627-52.907-19.627-73.387,0l-65.707,59.733v-23.04h8.533
				c5.12,0,8.533-3.413,8.533-8.533V7.747c0-5.12-3.413-8.533-8.533-8.533H59.84c-5.12,0-8.533,3.413-8.533,8.533V41.88
				c0,5.12,3.413,8.533,8.533,8.533h8.533v98.133L23.147,187.8c-5.973,5.973-7.68,13.653-5.12,21.333
				c2.56,6.827,10.24,11.947,17.92,11.947h32.427v238.933H59.84c-5.12,0-8.533,3.413-8.533,8.533v34.133
				c0,5.12,3.413,8.533,8.533,8.533h392.533c4.267,0,8.533-3.413,8.533-9.387v-34.133c0-2.56-0.853-4.267-2.56-5.973
				c-1.707-1.707-3.413-2.56-5.973-2.56h-8.533V220.227h32.427c8.533,0,15.36-4.267,17.92-11.947
				C496.747,201.453,495.04,192.92,489.067,187.8z M477.973,203.16c-0.853,0.853-1.707,0.853-1.707,0.853h-40.96
				c-5.12,0-8.533,3.413-8.533,8.533v256c0,5.12,3.413,8.533,8.533,8.533h8.533v17.067H68.373V477.08h8.533
				c5.12,0,8.533-3.413,8.533-8.533v-256c0-5.12-3.413-8.533-8.533-8.533h-40.96c-0.853,0-1.707,0-1.707-0.853s0-1.707,0.853-2.56
				l47.787-40.96c1.707-1.707,2.56-4.267,2.56-6.827V41.88c0-5.12-3.413-8.533-8.533-8.533h-8.533V16.28h85.333v17.067h-8.533
				c-5.12,0-8.533,3.413-8.533,8.533v51.2c0,3.413,1.707,6.827,5.12,9.387c3.413,0.853,6.827,0.853,9.387-1.707l80.213-73.387
				c13.653-13.653,34.987-13.653,49.493,0l196.267,174.08C477.973,201.453,478.827,202.307,477.973,203.16z"/>
			<path d="M256.107,169.88c-80.213,0-145.067,64.853-145.067,145.067s64.853,145.067,145.067,145.067
				s145.067-64.853,145.067-145.067S336.32,169.88,256.107,169.88z M256.107,442.947c-70.827,0-128-57.173-128-128
				s57.173-128,128-128s128,57.173,128,128S326.933,442.947,256.107,442.947z"/>
			<path d="M264.64,306.976v-68.322c11.005,1.343,19.877,5.319,25.6,11.232v22.395c0,5.12,3.413,8.533,8.533,8.533
				s8.533-3.413,8.533-8.533v-24.427c0.054-0.568,0.052-1.143,0-1.713v-25.06c0-5.12-3.413-8.533-8.533-8.533
				s-8.533,3.413-8.533,8.533v7.576c-7.352-3.907-16.029-6.303-25.6-7.182v-8.927c0-5.12-3.413-8.533-8.533-8.533
				c-5.12,0-8.533,3.413-8.533,8.533v9.096c-26.196,3.398-51.2,22.153-51.2,50.637s25.004,47.239,51.2,50.637v68.284
				c-10.65-1.381-19.848-5.345-25.6-11.209v-22.38c0-5.12-3.413-8.533-8.533-8.533s-8.533,3.413-8.533,8.533v24.427
				c-0.054,0.568-0.052,1.143,0,1.713v25.06c0,5.12,3.413,8.533,8.533,8.533s8.533-3.413,8.533-8.533v-7.945
				c7.352,3.95,16.029,6.543,25.6,7.509v8.97c0,5.12,3.413,8.533,8.533,8.533c5.12,0,8.533-3.413,8.533-8.533v-9.096
				c26.196-3.398,51.2-22.153,51.2-50.637C315.84,329.129,290.836,310.374,264.64,306.976z M213.44,272.28
				c0-17.647,16.474-30.216,34.133-33.358v66.759C229.914,302.7,213.44,290.662,213.44,272.28z M264.64,391.014v-66.759
				c17.66,3.143,34.133,15.712,34.133,33.358C298.773,375.995,282.3,388.033,264.64,391.014z"/>
		</g>
	</g>
</g>
</svg>