<?xml version="1.0" encoding="utf-8"?><!-- Uploaded to: SVG Repo, www.svgrepo.com, Generator: SVG Repo Mixer Tools -->
<svg width="800px" height="800px" viewBox="0 0 24 24" fill="none" xmlns="http://www.w3.org/2000/svg">
<path d="M3 21H21M3 11H21M3 18H21M6 18V14M10 18V14M14 18V14M18 18V14M12 7H16.84C16.896 7 16.924 7 16.9454 6.9891C16.9642 6.97951 16.9795 6.96422 16.9891 6.9454C17 6.92401 17 6.89601 17 6.84V4.16C17 4.10399 17 4.07599 16.9891 4.0546C16.9795 4.03578 16.9642 4.02049 16.9454 4.0109C16.924 4 16.896 4 16.84 4H12M12 11V3" stroke="#000000" stroke-width="2" stroke-linecap="round" stroke-linejoin="round"/>
</svg>