<?xml version="1.0" encoding="iso-8859-1"?>
<!-- Uploaded to: SVG Repo, www.svgrepo.com, Generator: SVG Repo Mixer Tools -->
<svg height="800px" width="800px" version="1.1" id="Layer_1" xmlns="http://www.w3.org/2000/svg" xmlns:xlink="http://www.w3.org/1999/xlink" 
	 viewBox="0 0 505 505" xml:space="preserve">
<circle style="fill:#84DBFF;" cx="252.5" cy="252.5" r="252.5"/>
<g>
	<polygon style="fill:#FF7058;" points="261.1,224.1 297.4,208.4 378.1,394.4 321.7,363.6 305.6,425.7 224.9,239.7 	"/>
	<polygon style="fill:#FF7058;" points="243.9,224.1 207.6,208.4 126.9,394.4 183.3,363.6 199.4,425.7 280.1,239.7 	"/>
</g>
<path style="fill:#FFFFFF;" d="M369.1,188.5L369.1,188.5c-5.3-5.3-6.8-13.1-4-19.9v-0.1c3.8-9.3-0.6-19.9-9.8-23.7h-0.1
	c-6.8-2.8-11.2-9.4-11.2-16.8v-0.2c0-10-8.1-18.1-18.1-18.1h-0.1c-7.3,0-14-4.4-16.8-11.2v-0.1c-3.8-9.3-14.5-13.7-23.7-9.8
	l-0.2,0.1c-6.8,2.8-14.6,1.3-19.8-3.9l0,0c-7.1-7.1-18.6-7.1-25.7,0l-0.1,0.1c-5.2,5.2-13,6.7-19.8,3.9h-0.1
	c-9.3-3.8-19.9,0.6-23.7,9.8v0.1c-2.8,6.8-9.4,11.2-16.7,11.2H179c-10,0-18.1,8.1-18.1,18.1v0.1c0,7.3-4.4,13.9-11.2,16.7l-0.1,0.1
	c-9.2,3.8-13.6,14.4-9.8,23.7l0.1,0.1c2.8,6.8,1.3,14.6-3.9,19.8l-0.1,0.1c-7.1,7.1-7.1,18.6,0,25.7l0.1,0.1
	c5.2,5.2,6.7,13,3.9,19.8v0.1c-3.8,9.3,0.6,19.9,9.8,23.7h0.1c6.8,2.8,11.2,9.4,11.2,16.8v0.2c0,10,8.1,18.1,18.1,18.1h0.1
	c7.3,0,14,4.4,16.8,11.2v0.1c3.8,9.3,14.5,13.7,23.7,9.8l0.2-0.1c6.8-2.8,14.6-1.3,19.8,3.9c7.1,7.1,18.6,7.1,25.7,0l0.1-0.1
	c5.2-5.2,13-6.7,19.8-3.9h0.1c9.3,3.8,19.9-0.6,23.7-9.8v-0.1c2.8-6.8,9.4-11.2,16.7-11.2h0.2c10,0,18.1-8.1,18.1-18.1v-0.1
	c0-7.3,4.4-13.9,11.2-16.7l0.1-0.1c9.2-3.8,13.6-14.4,9.8-23.7l-0.1-0.1c-2.8-6.8-1.3-14.6,3.9-19.8l0.1-0.1
	C376.2,207,376.2,195.5,369.1,188.5z"/>
<path style="fill:#FFD05B;" d="M252.5,292.8L252.5,292.8c-50.6,0-91.6-41-91.6-91.6l0,0c0-50.6,41-91.6,91.6-91.6l0,0
	c50.6,0,91.6,41,91.6,91.6l0,0C344.1,251.9,303.1,292.8,252.5,292.8z"/>
<path style="fill:#FFFFFF;" d="M245.2,173.2c0,5.6-2,10.4-6,14.3c-4,3.9-9.1,5.8-15.1,5.8c-6.1,0-11.1-2-15.1-5.9s-6-8.7-6-14.3
	s2-10.4,6-14.3c4-3.9,9.1-5.9,15.1-5.9c6.1,0,11.1,2,15.1,5.9C243.2,162.8,245.2,167.6,245.2,173.2z M300.3,150.5l-71.9,100.4h-24.7
	l72.1-100.4H300.3z M219.7,178.3c1.1,1.3,2.5,1.9,4.2,1.9s3.2-0.6,4.3-1.9c1.1-1.3,1.7-3,1.7-5.1s-0.6-3.9-1.7-5.2
	c-1.1-1.4-2.6-2.1-4.2-2.1c-1.7,0-3.1,0.7-4.2,2.1c-1.1,1.4-1.7,3.1-1.7,5.2C218.1,175.3,218.6,177,219.7,178.3z M301.8,231.9
	c0,5.7-2,10.4-6,14.3c-4,3.9-9.1,5.8-15.1,5.8c-6.1,0-11.1-2-15.1-5.9s-6-8.7-6-14.3s2-10.4,6-14.3c4-3.9,9.1-5.9,15.1-5.9
	c6.1,0,11.1,2,15.1,5.9C299.8,221.5,301.8,226.3,301.8,231.9z M276.3,237c1.1,1.3,2.5,1.9,4.2,1.9s3.2-0.6,4.3-1.9
	c1.1-1.3,1.7-3,1.7-5.1s-0.6-3.9-1.7-5.2c-1.1-1.4-2.6-2.1-4.2-2.1c-1.7,0-3.1,0.7-4.2,2.1c-1.1,1.4-1.7,3.1-1.7,5.2
	C274.6,234,275.2,235.7,276.3,237z"/>
</svg>