<?xml version="1.0" encoding="iso-8859-1"?>
<!-- Uploaded to: SVG Repo, www.svgrepo.com, Generator: SVG Repo Mixer Tools -->
<svg fill="#000000" height="800px" width="800px" version="1.1" id="Layer_1" xmlns="http://www.w3.org/2000/svg" xmlns:xlink="http://www.w3.org/1999/xlink" 
	 viewBox="0 0 511.999 511.999" xml:space="preserve">
<g>
	<g>
		<path d="M439.551,68.465c0.708-7.046-3.06-13.559-9.135-16.595L330.246,1.786c-11.211-5.599-24.161,2.682-24.161,14.932v50.085
			H189.221c-0.19,0-0.375,0.022-0.563,0.028c-46.263,0.396-82.766,37.773-82.911,83.179l-0.514,16.962H55.661
			c-9.206,0-16.695,7.537-16.695,16.695V311.66H22.271c-9.22,0-16.695,7.475-16.695,16.695s7.475,16.695,16.695,16.695
			c11.143,0,273.899,0,283.814,0v150.254c0,9.22,7.475,16.695,16.695,16.695h66.78c9.22,0,16.695-7.475,16.695-16.695V345.05h50.085
			c0.003,0,0.006,0,0.009,0c30.564-0.01,50.071-36.191,50.073-61.102l0.003-133.672C506.424,109.932,477.653,76.186,439.551,68.465z
			 M339.474,43.731l46.144,23.071l-46.144,23.072V43.731z M207.343,200.362l-51.512,40.064l-51.513-40.064H207.343z
			 M239.305,311.661H72.355v-93.86l73.225,56.953c6.029,4.69,14.471,4.689,20.499,0l73.225-56.953V311.661z M239.305,166.972
			H138.637c0.013-0.415,0.499-16.279,0.499-16.695c0-27.355,22.131-50.114,50.07-50.085c0.004,0,0.01,0,0.014,0h0.292
			c29.8,0.203,49.793,25.975,49.793,53.657V166.972z M372.864,478.611h-33.39V345.051h33.39V478.611z M473.03,283.947
			c-0.001,11.964-10.502,27.715-16.695,27.715H272.695c0-2.706,0-156.026,0-157.812c0-19.982-6.606-38.727-17.721-53.657h51.111
			c0,12.778,0,102.482,0,116.864c0,9.22,7.475,16.695,16.695,16.695s16.695-7.475,16.695-16.695v-89.852l54.025-27.012h29.45
			c27.617,0,50.085,22.468,50.085,50.085L473.03,283.947z"/>
	</g>
</g>
</svg>