<?xml version="1.0" encoding="utf-8"?>

<!DOCTYPE svg PUBLIC "-//W3C//DTD SVG 1.1//EN" "http://www.w3.org/Graphics/SVG/1.1/DTD/svg11.dtd">
<!-- Uploaded to: SVG Repo, www.svgrepo.com, Generator: SVG Repo Mixer Tools -->
<svg version="1.1" id="PRICE" xmlns="http://www.w3.org/2000/svg" xmlns:xlink="http://www.w3.org/1999/xlink" 
	 width="800px" height="800px" viewBox="0 0 1800 1800" enable-background="new 0 0 1800 1800" xml:space="preserve">
<g id="Layer">
	<g>
		<g>
			<g>
				<g>
					<path fill="#333333" d="M980.141,1426.945H799.02v-118.506c-69.393-6.158-141.632-26.024-190.641-53.104l-20.991-11.607
						l52.338-204.102l35.001,19.166c33.877,18.551,103.21,49.678,186.896,49.678c43.264,0,86.914-13.717,86.914-44.368
						c0-20.55-13.207-44.022-108.99-76.386C727.884,950.146,599.67,887.562,599.67,735.901c0-118.03,78.008-208.647,205.43-241.258
						V373.055h181.121v108.638c76.854,6.214,127.293,26.167,159.665,41.397l23.395,11.01l-52.706,198.537l-34.932-16.757
						c-30.332-14.56-81.1-38.932-160.461-38.932c-27.462,0-73.538,4.973-73.538,38.288c0,25.207,67.061,52.896,125.491,74.206
						c156.457,54.756,223.372,131.853,223.372,257.641c0,62.643-21.977,119.475-63.568,164.353
						c-37.588,40.571-90.052,69.527-152.798,84.567V1426.945z M861.015,1364.95h57.132v-120.313l25.729-4.437
						c117.589-20.272,190.636-94.271,190.636-193.118c0-81.316-30.988-146.326-182.237-199.261
						c-91.338-33.311-166.625-66.172-166.625-132.585c0-48.481,35.607-100.283,135.533-100.283
						c68.248,0,119.197,15.615,154.484,30.171l20.221-76.148c-31.758-12.463-77.164-25.047-141.589-26.967l-30.071-0.899v-106.06
						h-57.132v110.22L841.792,550c-112.789,21.082-180.128,90.579-180.128,185.901c0,88.71,59.123,146.45,197.689,193.064
						c78.537,26.534,151.178,61.268,151.178,135.137c0,64.615-58.448,106.362-148.908,106.362
						c-73.782,0-137.615-20.566-181.23-39.836l-20.731,80.85c39.862,17.4,101.68,34.715,171.28,36.791l30.072,0.9V1364.95z"/>
				</g>
			</g>
			<g>
				<g>
					<path fill="none" d="M1394.443,1646.797l13.552-28.16c-5.872,4.203-11.797,8.346-17.772,12.41L1394.443,1646.797z"/>
				</g>
				<g>
					<path fill="#333333" d="M894.438,1721.617c-453.04,0-821.616-368.576-821.616-821.614c0-453.044,368.576-821.62,821.616-821.62
						c453.043,0,821.627,368.576,821.627,821.62c0,144.397-37.492,280.184-103.18,398.222l61.597,16.502
						c66.06-123.746,103.577-264.929,103.577-414.724c0-487.224-396.391-883.615-883.621-883.615
						c-487.224,0-883.61,396.391-883.61,883.615c0,487.227,396.386,883.608,883.61,883.608
						c154.789,0,300.383-40.053,427.035-110.271l-16.563-61.813C1184.061,1681.513,1043.848,1721.617,894.438,1721.617z"/>
				</g>
			</g>
			<g>
				<g>
					<path fill="#333333" d="M1661.595,1783.611c-7.931,0-15.862-3.027-21.916-9.072l-150.333-150.333l-48.355,100.489
						c-5.621,11.686-17.973,18.647-30.824,17.428c-12.904-1.211-23.697-10.326-27.053-22.842l-111.181-414.95
						c-2.862-10.698,0.199-22.114,8.026-29.942c7.836-7.836,19.243-10.889,29.941-8.025l414.943,111.188
						c12.514,3.355,21.63,14.149,22.841,27.054c1.202,12.903-5.743,25.202-17.427,30.824l-100.49,48.363l150.332,150.324
						c5.813,5.813,9.073,13.699,9.073,21.916c0,8.225-3.261,16.104-9.073,21.925l-96.58,96.581
						C1677.465,1780.584,1669.525,1783.611,1661.595,1783.611z M1480.368,1540.391c8.147,0,16.052,3.217,21.916,9.081
						l159.311,159.311l52.749-52.749l-159.311-159.302c-7.101-7.108-10.326-17.211-8.641-27.122
						c1.688-9.903,8.061-18.37,17.116-22.729l64.563-31.076l-282.357-75.659l75.651,282.356l31.066-64.555
						c4.358-9.055,12.835-15.43,22.737-17.115C1476.9,1540.537,1478.639,1540.391,1480.368,1540.391z"/>
				</g>
			</g>
		</g>
		<path fill="#333333" d="M1140.299,292.544c111.231,0,327.736,121.636,327.736,344.61c0,17.12,13.873,30.997,30.997,30.997
			c17.116,0,30.997-13.877,30.997-30.997c0-116.063-51.296-223.666-144.435-302.993c-73.896-62.941-170.182-103.612-245.296-103.612
			c-17.116,0-30.998,13.877-30.998,30.998S1123.183,292.544,1140.299,292.544z"/>
	</g>
</g>
</svg>