<?xml version="1.0" encoding="iso-8859-1"?>
<!-- Uploaded to: SVG Repo, www.svgrepo.com, Generator: SVG Repo Mixer Tools -->
<svg version="1.1" id="Layer_1" xmlns="http://www.w3.org/2000/svg" xmlns:xlink="http://www.w3.org/1999/xlink" 
	 viewBox="0 0 297 297" xml:space="preserve">
<g>
	<g>
		<circle style="fill:#345065;" cx="148.5" cy="148.5" r="148.5"/>
	</g>
	<g>
		<path style="fill:#263D49;" d="M54.225,192.508l105.323,104.083c73.861-5.432,132.696-64.888,137.168-139.012l-54.328-53.488
			L54.225,192.508z"/>
	</g>
	<g>
		<path style="fill:#FFFFFF;" d="M66.917,99c-9.619,0-17.417,7.798-17.417,17.417v64.166c0,9.619,7.798,17.417,17.417,17.417h53.25
			V99H66.917z"/>
	</g>
	<g>
		<rect x="120.167" y="99" style="fill:#FFFFFF;" width="56" height="99"/>
	</g>
	<g>
		<path style="fill:#C63C22;" d="M230.083,99h-53.916v99h53.916c9.619,0,17.417-7.798,17.417-17.417v-64.166
			C247.5,106.798,239.702,99,230.083,99z"/>
	</g>
	<g>
		<g>
			<path style="fill:#394C81;" d="M78.657,179.438c-1.407,0-2.815-0.537-3.889-1.611c-2.148-2.147-2.148-5.63,0-7.777l50.876-50.876
				c2.146-2.148,5.631-2.148,7.777,0c2.148,2.147,2.148,5.63,0,7.777l-50.876,50.876C81.473,178.9,80.064,179.438,78.657,179.438z"
				/>
		</g>
		<g>
			<path style="fill:#394C81;" d="M85.563,146.435c-9.08,0-16.467-7.388-16.467-16.468c0-4.398,1.713-8.534,4.823-11.645
				c3.109-3.109,7.244-4.822,11.642-4.822c0.001,0,0.002,0,0.002,0c9.08,0,16.468,7.387,16.468,16.467
				S94.643,146.435,85.563,146.435z M85.562,124.5c-1.46,0-2.832,0.568-3.864,1.601c-1.033,1.032-1.602,2.405-1.602,3.866
				c0,3.015,2.452,5.468,5.467,5.468s5.468-2.453,5.468-5.468S88.577,124.5,85.562,124.5L85.562,124.5z"/>
		</g>
		<g>
			<path style="fill:#394C81;" d="M122.628,183.5c-9.08,0-16.467-7.388-16.467-16.469c0-9.079,7.387-16.466,16.467-16.466
				s16.468,7.387,16.468,16.466C139.096,176.112,131.708,183.5,122.628,183.5z M122.628,161.565c-3.015,0-5.467,2.452-5.467,5.466
				c0,3.016,2.452,5.469,5.467,5.469s5.468-2.453,5.468-5.469C128.096,164.018,125.643,161.565,122.628,161.565z"/>
		</g>
	</g>
	<g>
		<rect x="187.084" y="145.5" style="fill:#D0D5D9;" width="49.5" height="6"/>
	</g>
	<g>
		<rect x="187.084" y="159" style="fill:#D0D5D9;" width="49.5" height="6"/>
	</g>
	<g>
		<rect x="187.084" y="132" style="fill:#D0D5D9;" width="49.5" height="6"/>
	</g>
</g>
</svg>