<?xml version="1.0" encoding="iso-8859-1"?>
<!-- Uploaded to: SVG Repo, www.svgrepo.com, Generator: SVG Repo Mixer Tools -->
<svg height="800px" width="800px" version="1.1" id="Layer_1" xmlns="http://www.w3.org/2000/svg" xmlns:xlink="http://www.w3.org/1999/xlink" 
	 viewBox="0 0 496.8 496.8" xml:space="preserve">
<path style="fill:#FFFFFF;" d="M480,385.2c0,12.8-10.4,23.2-23.2,23.2H31.2C18.4,408.4,8,398,8,385.2V103.6
	c0-12.8,10.4-23.2,23.2-23.2h426.4c12.8,0,23.2,10.4,23.2,23.2v281.6H480z"/>
<path style="fill:#E9F2F1;" d="M12,104.4c0-12.8,10.4-24,23.2-24h426.4c12.8,0,19.2,12.8,19.2,25.6v284.8c0,12.8-8,22.4-20.8,22.4"
	/>
<path style="fill:#B8BFBE;" d="M460.8,96.4c6.4,0,11.2,3.2,11.2,9.6v284.8c0,6.4-4.8,9.6-11.2,9.6H35.2c-6.4,0-11.2-3.2-11.2-9.6
	V106c0-6.4,4.8-9.6,11.2-9.6H464 M460.8,72.4H35.2C16,72.4,0,86.8,0,106v284.8c0,19.2,16,33.6,35.2,33.6h426.4
	c19.2,0,35.2-14.4,35.2-33.6V106C496,86.8,480,72.4,460.8,72.4L460.8,72.4z"/>
<path style="fill:#1BCEB8;" d="M460.8,72.4H264v352h196.8c19.2,0,35.2-14.4,35.2-33.6V106C496,86.8,480,72.4,460.8,72.4z"/>
<path style="fill:#0DBFBA;" d="M460.8,80.4H264v204l194.4,128.8c12.8,0,21.6-10.4,21.6-23.2V106C480,93.2,473.6,80.4,460.8,80.4z"/>
<g>
	<path style="fill:#FFFFFF;" d="M375.2,360.4l-48-48c-6.4-6.4-6.4-16,0-22.4c6.4-6.4,16-6.4,22.4,0l25.6,25.6l25.6-25.6
		c6.4-6.4,16-6.4,22.4,0c6.4,6.4,6.4,16,0,22.4L375.2,360.4z"/>
	<path style="fill:#FFFFFF;" d="M375.2,136.4l48,48c6.4,6.4,6.4,16,0,22.4s-16,6.4-22.4,0l-25.6-25.6l-25.6,25.6
		c-6.4,6.4-16,6.4-22.4,0s-6.4-16,0-22.4L375.2,136.4z"/>
</g>
<path style="fill:#9FAAA9;" d="M168.8,230.8c-8.8-4.8-20-8-31.2-8l2.4-15.2h39.2c4,0,4-3.2,4-8V186c0-4,0-10.4-4-10.4h-57.6
	c-4,0-7.2,4-8,8l-8,59.2c0,2.4,0.8,4.8,2.4,6.4c1.6,1.6,4.8,2.4,7.2,2.4c4-0.8,8.8-0.8,15.2-0.8c17.6,0,27.2,6.4,27.2,19.2
	s-11.2,18.4-20.8,18.4s-18.4-3.2-21.6-5.6c-2.4-1.6-4.8-1.6-6.4-0.8c-1.6,0.8-4,2.4-4.8,4.8l-4,12.8c-0.8,3.2,0,7.2,3.2,8.8
	c6.4,4,19.2,8.8,34.4,8.8c30.4,0,52.8-20.8,52.8-48.8C189.6,252.4,182.4,238.8,168.8,230.8z"/>
</svg>