<?xml version="1.0" encoding="iso-8859-1"?>
<!-- Uploaded to: SVG Repo, www.svgrepo.com, Generator: SVG Repo Mixer Tools -->
<svg fill="#000000" height="800px" width="800px" version="1.1" id="Layer_1" xmlns="http://www.w3.org/2000/svg" xmlns:xlink="http://www.w3.org/1999/xlink" 
	 viewBox="0 0 511.999 511.999" xml:space="preserve">
<g>
	<g>
		<path d="M462.318,188.09h-65.403L262.484,3.247c-3.148-4.33-9.819-4.33-12.968,0L115.084,188.09H49.681
			c-13.263,0-24.053,10.791-24.053,24.053v210.594c0,4.429,3.59,8.018,8.018,8.018c4.428,0,8.018-3.589,8.018-8.018V289.646h428.672
			v198.301c0,4.421-3.596,8.018-8.018,8.018H49.681c-4.421,0-8.018-3.596-8.018-8.018v-22.453c0-4.429-3.59-8.018-8.018-8.018
			c-4.428,0-8.018,3.589-8.018,8.018v22.453c0,13.262,10.789,24.053,24.053,24.053h412.637c13.263,0,24.053-10.791,24.053-24.053
			V212.143C486.371,198.881,475.581,188.09,462.318,188.09z M470.336,273.611H41.664v-61.468c0-4.421,3.596-8.018,8.018-8.018
			h261.907c4.428,0,8.018-3.589,8.018-8.018s-3.59-8.018-8.018-8.018H134.911L256,21.593L377.088,188.09h-22.74
			c-4.428,0-8.018,3.589-8.018,8.018s3.59,8.018,8.018,8.018h107.97c4.421,0,8.018,3.596,8.018,8.018V273.611z"/>
	</g>
</g>
<g>
	<g>
		<path d="M119.167,213.746c-13.852,0-25.122,11.269-25.122,25.122c0,13.852,11.269,25.122,25.122,25.122
			c13.852,0,25.122-11.269,25.122-25.122C144.288,225.016,133.019,213.746,119.167,213.746z M119.167,247.955
			c-5.01,0-9.087-4.076-9.087-9.087s4.076-9.087,9.087-9.087c5.01,0,9.087,4.076,9.087,9.087S124.177,247.955,119.167,247.955z"/>
	</g>
</g>
<g>
	<g>
		<path d="M392.833,213.746c-13.852,0-25.122,11.269-25.122,25.122c0,13.852,11.269,25.122,25.122,25.122
			c13.852,0,25.122-11.269,25.122-25.122C417.954,225.016,406.685,213.746,392.833,213.746z M392.833,247.955
			c-5.01,0-9.087-4.076-9.087-9.087s4.076-9.087,9.087-9.087s9.087,4.076,9.087,9.087S397.843,247.955,392.833,247.955z"/>
	</g>
</g>
<g>
	<g>
		<path d="M341.52,230.851H170.479c-4.428,0-8.018,3.589-8.018,8.018c0,4.429,3.59,8.018,8.018,8.018H341.52
			c4.428,0,8.018-3.589,8.018-8.018C349.538,234.439,345.948,230.851,341.52,230.851z"/>
	</g>
</g>
<g>
	<g>
		<path d="M444.128,429.237l-14.117-10.536l10.416-21.906c1.39-2.923,0.886-6.396-1.279-8.802l-17.042-18.957l10.943-23.024
			c1.389-2.923,0.885-6.395-1.279-8.801l-16.221-18.044l10.536-14.119c1.939-2.599,2.122-6.109,0.463-8.896
			c-1.658-2.785-4.833-4.303-8.041-3.832L71.516,342.725c-6.912,1.003-9.254,10.171-3.643,14.36l14.118,10.537l-10.416,21.914
			c-1.389,2.923-0.885,6.395,1.279,8.801l17.042,18.957l-10.943,23.017c-1.39,2.923-0.886,6.395,1.279,8.802l16.221,18.045
			l-10.536,14.116c-4.183,5.606,0.661,13.74,7.577,12.73l346.992-50.407C447.398,442.594,449.739,433.425,444.128,429.237z
			 M415.15,427.619l3.875,2.892l-308.682,44.843l2.89-3.871c2.287-3.063,2.093-7.314-0.463-10.156l-17.041-18.957l10.943-23.017
			c1.39-2.923,0.886-6.396-1.279-8.802l-17.042-18.958l10.943-23.022c1.55-3.262,0.675-7.255-2.085-9.579
			c-1.346-1.133-2.826-2.127-4.236-3.179l308.684-44.842l-2.892,3.874c-2.286,3.063-2.092,7.313,0.463,10.154l17.043,18.956
			l-10.943,23.024c-1.389,2.923-0.885,6.395,1.279,8.801l17.041,18.956l-10.943,23.015
			C411.065,421.203,412.088,425.334,415.15,427.619z"/>
	</g>
</g>
<g>
	<g>
		<path d="M253.852,411.839l-5.225-35.97c-0.924-6.357-4.268-11.976-9.417-15.818c-5.147-3.844-11.484-5.452-17.842-4.526
			l-2.118,0.307c-13.124,1.907-22.25,14.137-20.344,27.261l5.225,35.968c1.737,11.959,12.041,20.599,23.789,20.598
			c1.884,0,3.73-0.289,5.587-0.559c6.358-0.923,11.976-4.266,15.819-9.416S254.777,418.196,253.852,411.839z M236.475,420.09
			c-2.066,2.77-6.543,3.979-9.869,3.419c-3.394-0.572-6.113-3.347-6.608-6.754l-5.225-35.968c-0.637-4.385,2.477-8.37,6.78-9.088
			c2.727-0.454,5.456-0.618,7.827,1.035c1.807,1.259,3.061,3.257,3.378,5.44l5.225,35.969
			C238.301,416.23,237.735,418.404,236.475,420.09z"/>
	</g>
</g>
<g>
	<g>
		<path d="M372.337,394.626l-2.919-20.101c-1.539-10.597-7.113-19.959-15.694-26.364c-8.582-6.404-19.145-9.083-29.739-7.544
			c-2.592,0.376-5.081,0.828-6.913,2.875c-1.57,1.754-2.325,4.185-1.986,6.519l9.836,67.706c0.626,4.319,4.763,7.418,9.087,6.782
			l17.985-2.612C365.116,419.979,374.244,407.75,372.337,394.626z M349.688,406.018l-10.05,1.459l-7.426-51.125
			c10.846,1.097,19.774,9.716,21.338,20.478l2.919,20.101C357.104,401.306,354.062,405.382,349.688,406.018z"/>
	</g>
</g>
<g>
	<g>
		<path d="M315.398,419.099c-0.635-4.381-4.708-7.419-9.085-6.781l-25.919,3.765l-8.684-59.771c-0.636-4.383-4.71-7.429-9.087-6.782
			c-4.382,0.637-7.418,4.705-6.782,9.087l9.836,67.706c0.626,4.316,4.766,7.417,9.087,6.782l33.852-4.919
			C312.998,427.549,316.034,423.481,315.398,419.099z"/>
	</g>
</g>
<g>
	<g>
		<path d="M194.61,420.442l-0.308-2.113c-1.906-13.124-14.135-22.244-27.262-20.345l-2.113,0.308
			c-4.375,0.636-8.452-2.406-9.088-6.782l-0.308-2.116c-0.635-4.375,2.407-8.452,6.782-9.088l17.984-2.612
			c4.382-0.636,7.418-4.704,6.782-9.087c-0.637-4.382-4.705-7.431-9.087-6.782l-17.985,2.612
			c-13.124,1.907-22.251,14.137-20.344,27.261l0.308,2.116c1.906,13.123,14.133,22.249,27.262,20.344
			c1.977-0.288,3.878-0.63,5.832,0.034c2.529,0.859,4.517,2.979,5.192,5.565c0.526,2.014,0.839,4.449,0.233,6.449
			c-0.897,2.959-3.472,5.184-6.531,5.628l-17.984,2.613c-4.264,0.62-7.346,4.661-6.8,8.938c0.56,4.385,4.72,7.575,9.106,6.93
			l17.983-2.613c6.358-0.923,11.976-4.267,15.819-9.417C193.927,433.138,195.535,426.801,194.61,420.442z"/>
	</g>
</g>
</svg>